<?xml version="1.0" encoding="UTF-8" standalone="no"?>
<svg
   xmlns:dc="http://purl.org/dc/elements/1.1/"
   xmlns:cc="http://creativecommons.org/ns#"
   xmlns:rdf="http://www.w3.org/1999/02/22-rdf-syntax-ns#"
   xmlns:svg="http://www.w3.org/2000/svg"
   xmlns="http://www.w3.org/2000/svg"
   viewBox="0 0 1365.3333 533.33331"
   height="533.33331"
   width="1365.3333"
   xml:space="preserve"
   id="svg2"
   version="1.1"><metadata
     id="metadata8"><rdf:RDF><cc:Work
         rdf:about=""><dc:format>image/svg+xml</dc:format><dc:type
           rdf:resource="http://purl.org/dc/dcmitype/StillImage" /><dc:title></dc:title></cc:Work></rdf:RDF></metadata><defs
     id="defs6"><clipPath
       id="clipPath18"
       clipPathUnits="userSpaceOnUse"><path
         id="path16"
         d="m 666.389,139.857 21.58,-13.331 61.181,99.025 61.114,-98.97 21.592,13.31 -82.706,133.952 z" /></clipPath><linearGradient
       id="linearGradient28"
       spreadMethod="pad"
       gradientTransform="matrix(242.625,0,0,-242.625,663.22656,202.25098)"
       gradientUnits="userSpaceOnUse"
       y2="0"
       x2="1"
       y1="0"
       x1="0"><stop
         id="stop24"
         offset="0"
         style="stop-opacity:1;stop-color:#e12526" /><stop
         id="stop26"
         offset="1"
         style="stop-opacity:1;stop-color:#8b1d1b" /></linearGradient><clipPath
       id="clipPath38"
       clipPathUnits="userSpaceOnUse"><path
         id="path36"
         d="m 794.035,229.972 14.98,-24.03 12.12,19.609 61.107,-98.97 21.597,13.31 -82.704,133.952 z" /></clipPath><linearGradient
       id="linearGradient48"
       spreadMethod="pad"
       gradientTransform="matrix(242.625,0,0,-242.625,663.22656,202.25098)"
       gradientUnits="userSpaceOnUse"
       y2="0"
       x2="1"
       y1="0"
       x1="0"><stop
         id="stop44"
         offset="0"
         style="stop-opacity:1;stop-color:#e12526" /><stop
         id="stop46"
         offset="1"
         style="stop-opacity:1;stop-color:#8b1d1b" /></linearGradient><clipPath
       id="clipPath58"
       clipPathUnits="userSpaceOnUse"><path
         id="path56"
         d="M 0,400 H 1024 V 0 H 0 Z" /></clipPath></defs><g
     transform="matrix(1.3333333,0,0,-1.3333333,0,533.33333)"
     id="g10"><g
       id="g12"><g
         clip-path="url(#clipPath18)"
         id="g14"><g
           id="g20"><g
             id="g22"><path
               id="path30"
               style="fill:url(#linearGradient28);stroke:none"
               d="m 666.389,139.857 21.58,-13.331 61.181,99.025 61.114,-98.97 21.592,13.31 -82.706,133.952 z" /></g></g></g></g><g
       id="g32"><g
         clip-path="url(#clipPath38)"
         id="g34"><g
           id="g40"><g
             id="g42"><path
               id="path50"
               style="fill:url(#linearGradient48);stroke:none"
               d="m 794.035,229.972 14.98,-24.03 12.12,19.609 61.107,-98.97 21.597,13.31 -82.704,133.952 z" /></g></g></g></g><g
       id="g52"><g
         clip-path="url(#clipPath58)"
         id="g54"><g
           transform="translate(900.0098,256.1758)"
           id="g60"><path
             id="path62"
             style="fill:none;stroke:#8a181a;stroke-width:7.44099998;stroke-linecap:butt;stroke-linejoin:miter;stroke-miterlimit:10;stroke-dasharray:none;stroke-opacity:1"
             d="m 0,0 c 0,-7.636 -6.189,-13.834 -13.809,-13.834 -7.66,0 -13.841,6.198 -13.841,13.834 0,7.632 6.181,13.813 13.841,13.813 C -6.189,13.813 0,7.632 0,0 Z" /></g><g
           transform="translate(125.6567,192.7158)"
           id="g64"><path
             id="path66"
             style="fill:#000000;fill-opacity:1;fill-rule:nonzero;stroke:none"
             d="m 0,0 v 30.296 c 0,7.981 2.134,13.847 6.403,17.595 4.268,3.748 9.839,5.622 16.71,5.622 7.079,0 12.788,-1.753 17.126,-5.258 4.337,-3.505 6.508,-8.034 6.508,-13.586 0,-2.222 -0.417,-3.731 -1.25,-4.529 -0.833,-0.798 -2.256,-1.198 -4.268,-1.198 -3.61,0 -5.45,1.214 -5.519,3.645 -0.416,7.426 -4.476,11.14 -12.181,11.14 -8.329,0 -12.493,-4.477 -12.493,-13.431 L 11.036,0 c 0,-8.954 4.233,-13.431 12.702,-13.431 2.498,0 4.58,0.365 6.246,1.093 1.666,0.729 2.864,1.786 3.592,3.176 0.729,1.388 1.232,2.602 1.51,3.643 0.276,1.041 0.485,2.326 0.624,3.853 0.209,2.429 2.013,3.644 5.415,3.644 2.012,0 3.451,-0.401 4.32,-1.198 0.867,-0.799 1.302,-2.308 1.302,-4.528 0,-5.763 -2.187,-10.447 -6.559,-14.056 -4.374,-3.609 -10.1,-5.414 -17.179,-5.414 -6.872,0 -12.426,1.874 -16.658,5.622 C 2.116,-13.848 0,-7.982 0,0" /></g><g
           transform="translate(193.0161,192.7158)"
           id="g68"><path
             id="path70"
             style="fill:#000000;fill-opacity:1;fill-rule:nonzero;stroke:none"
             d="m 0,0 c 0,-8.954 4.094,-13.431 12.285,-13.431 3.956,0 7.01,1.11 9.162,3.331 2.151,2.221 3.227,5.587 3.227,10.1 v 30.296 c 0,4.512 -1.076,7.877 -3.227,10.099 -2.152,2.221 -5.206,3.332 -9.162,3.332 C 4.094,43.727 0,39.25 0,30.296 Z m -11.036,0 v 30.296 c 0,7.981 2.116,13.847 6.351,17.595 4.232,3.748 9.891,5.622 16.97,5.622 7.08,0 12.754,-1.874 17.023,-5.622 4.268,-3.748 6.402,-9.614 6.402,-17.595 V 0 c 0,-7.982 -2.134,-13.848 -6.402,-17.596 -4.269,-3.748 -9.943,-5.622 -17.023,-5.622 -7.079,0 -12.738,1.874 -16.97,5.622 -4.235,3.748 -6.351,9.614 -6.351,17.596" /></g><g
           transform="translate(252.6714,179.9092)"
           id="g72"><path
             id="path74"
             style="fill:#000000;fill-opacity:1;fill-rule:nonzero;stroke:none"
             d="m 0,0 h 12.285 c 8.259,0 12.39,4.478 12.39,13.431 v 29.672 c 0,8.954 -4.131,13.43 -12.39,13.43 H 0 Z M -11.036,-6.246 V 62.78 c 0,0.971 0.469,1.804 1.406,2.499 0.937,0.693 2.098,1.041 3.487,1.041 h 18.428 c 7.08,0 12.754,-1.874 17.023,-5.622 4.268,-3.748 6.402,-9.614 6.402,-17.595 V 13.431 C 35.71,5.448 33.576,-0.416 29.308,-4.164 25.039,-7.912 19.365,-9.786 12.285,-9.786 H -6.143 c -1.389,0 -2.55,0.347 -3.487,1.041 -0.937,0.693 -1.406,1.526 -1.406,2.499" /></g><g
           transform="translate(301.292,173.7666)"
           id="g76"><path
             id="path78"
             style="fill:#000000;fill-opacity:1;fill-rule:nonzero;stroke:none"
             d="m 0,0 v 68.818 c 0,1.11 0.484,1.995 1.458,2.656 0.971,0.658 2.116,0.988 3.435,0.988 h 37.064 c 1.179,0 2.082,-0.486 2.707,-1.457 0.625,-0.973 0.937,-2.082 0.937,-3.332 0,-1.389 -0.33,-2.569 -0.989,-3.54 -0.66,-0.972 -1.546,-1.457 -2.655,-1.457 H 11.036 V 38.834 h 16.033 c 1.109,0 1.994,-0.435 2.655,-1.301 0.659,-0.869 0.989,-1.927 0.989,-3.176 0,-1.111 -0.313,-2.1 -0.937,-2.966 -0.625,-0.87 -1.527,-1.302 -2.707,-1.302 H 11.036 V 6.143 h 30.921 c 1.109,0 1.995,-0.487 2.655,-1.457 0.659,-0.973 0.989,-2.153 0.989,-3.54 0,-1.25 -0.312,-2.361 -0.937,-3.332 -0.625,-0.973 -1.528,-1.458 -2.707,-1.458 H 4.893 c -1.319,0 -2.464,0.329 -3.435,0.99 C 0.484,-1.996 0,-1.11 0,0" /></g><g
           transform="translate(376.5645,173.7666)"
           id="g80"><path
             id="path82"
             style="fill:#3e3e40;fill-opacity:1;fill-rule:nonzero;stroke:none"
             d="m 0,0 v 66.944 c 0,1.874 0.521,3.262 1.562,4.165 1.041,0.901 2.358,1.353 3.956,1.353 2.012,0 3.66,-0.434 4.945,-1.301 1.284,-0.869 2.551,-2.516 3.8,-4.945 l 14.576,-27.59 14.784,27.59 c 1.249,2.429 2.499,4.076 3.748,4.945 1.249,0.867 2.879,1.301 4.893,1.301 1.596,0 2.915,-0.452 3.956,-1.353 1.042,-0.903 1.562,-2.291 1.562,-4.165 L 57.782,0 c 0,-1.11 -0.538,-1.996 -1.614,-2.654 -1.077,-0.661 -2.378,-0.99 -3.904,-0.99 -1.457,0 -2.743,0.329 -3.852,0.99 C 47.301,-1.996 46.746,-1.11 46.746,0 V 49.975 L 32.795,24.154 c -1.041,-1.666 -2.395,-2.499 -4.06,-2.499 -1.666,0 -2.915,0.833 -3.748,2.499 L 11.036,50.599 V 0 c 0,-1.11 -0.539,-1.996 -1.614,-2.654 -1.077,-0.661 -2.379,-0.99 -3.904,-0.99 -1.458,0 -2.743,0.329 -3.852,0.99 C 0.555,-1.996 0,-1.11 0,0" /></g><g
           transform="translate(448.0894,173.7666)"
           id="g84"><path
             id="path86"
             style="fill:#3e3e40;fill-opacity:1;fill-rule:nonzero;stroke:none"
             d="m 0,0 v 68.923 c 0,1.179 0.537,2.064 1.614,2.655 1.075,0.589 2.376,0.884 3.904,0.884 1.525,0 2.827,-0.295 3.904,-0.884 1.075,-0.591 1.614,-1.476 1.614,-2.655 L 11.036,0 c 0,-1.11 -0.539,-1.996 -1.614,-2.654 -1.077,-0.661 -2.379,-0.99 -3.904,-0.99 -1.458,0 -2.743,0.329 -3.852,0.99 C 0.555,-1.996 0,-1.11 0,0" /></g><g
           transform="translate(472.8672,173.7666)"
           id="g88"><path
             id="path90"
             style="fill:#3e3e40;fill-opacity:1;fill-rule:nonzero;stroke:none"
             d="m 0,0 v 68.818 c 0,2.429 1.838,3.644 5.518,3.644 1.942,0 3.504,-0.434 4.685,-1.301 1.179,-0.869 2.394,-2.516 3.644,-4.945 L 36.959,21.135 v 47.788 c 0,1.179 0.538,2.064 1.614,2.655 1.076,0.589 2.376,0.884 3.906,0.884 1.525,0 2.826,-0.295 3.902,-0.884 1.076,-0.591 1.615,-1.476 1.615,-2.655 L 47.996,0 c 0,-1.11 -0.539,-1.996 -1.615,-2.654 -1.076,-0.661 -2.377,-0.99 -3.902,-0.99 -2.916,0 -5.103,1.354 -6.561,4.061 L 11.036,47.788 V 0 c 0,-1.11 -0.539,-1.996 -1.614,-2.654 -1.077,-0.661 -2.379,-0.99 -3.904,-0.99 -1.458,0 -2.743,0.329 -3.852,0.99 C 0.555,-1.996 0,-1.11 0,0" /></g><g
           transform="translate(534.6035,173.7666)"
           id="g92"><path
             id="path94"
             style="fill:#3e3e40;fill-opacity:1;fill-rule:nonzero;stroke:none"
             d="m 0,0 v 68.818 c 0,1.11 0.486,1.995 1.459,2.656 0.971,0.658 2.115,0.988 3.436,0.988 h 37.064 c 1.178,0 2.082,-0.486 2.705,-1.457 0.625,-0.973 0.938,-2.082 0.938,-3.332 0,-1.389 -0.331,-2.569 -0.989,-3.54 -0.66,-0.972 -1.545,-1.457 -2.654,-1.457 H 11.037 V 38.834 H 27.07 c 1.11,0 1.994,-0.435 2.655,-1.301 0.658,-0.869 0.99,-1.927 0.99,-3.176 0,-1.111 -0.313,-2.1 -0.938,-2.966 -0.625,-0.87 -1.527,-1.302 -2.707,-1.302 H 11.037 V 6.143 h 30.922 c 1.109,0 1.994,-0.487 2.654,-1.457 0.658,-0.973 0.989,-2.153 0.989,-3.54 0,-1.25 -0.313,-2.361 -0.938,-3.332 -0.623,-0.973 -1.527,-1.458 -2.705,-1.458 H 4.895 c -1.321,0 -2.465,0.329 -3.436,0.99 C 0.486,-1.996 0,-1.11 0,0" /></g><g
           transform="translate(599.9863,211.6641)"
           id="g96"><path
             id="path98"
             style="fill:#3e3e40;fill-opacity:1;fill-rule:nonzero;stroke:none"
             d="m 0,0 h 12.494 c 8.606,0 12.91,4.129 12.91,12.389 0,8.259 -4.304,12.389 -12.91,12.389 H 0 Z m -10.932,-37.897 v 68.922 c 0,0.972 0.346,1.804 1.041,2.499 0.694,0.693 1.563,1.041 2.604,1.041 h 19.781 c 15.963,0 23.945,-7.08 23.945,-21.239 0,-5.876 -1.32,-10.489 -3.957,-13.841 C 29.844,-3.867 26.27,-6.096 21.76,-7.202 l 14.576,-27.446 c 0.275,-0.489 0.416,-1.009 0.416,-1.566 0,-1.391 -0.713,-2.681 -2.135,-3.864 -1.424,-1.185 -2.933,-1.776 -4.529,-1.776 -1.805,0 -3.264,1.08 -4.373,3.238 L 10.516,-8.746 H 0 v -29.14 c 0,-1.114 -0.539,-2.003 -1.613,-2.663 -1.078,-0.662 -2.379,-0.992 -3.905,-0.992 -1.457,0 -2.724,0.328 -3.8,0.989 -1.077,0.658 -1.614,1.544 -1.614,2.655" /></g></g></g></g></svg>