<svg width="16" height="16" viewBox="0 0 16 16" fill="none" xmlns="http://www.w3.org/2000/svg">
<path d="M1.5 3.25C1.50012 2.83753 1.61363 2.43303 1.8281 2.08071C2.04258 1.72839 2.34978 1.44181 2.71612 1.25228C3.08247 1.06275 3.49386 0.97757 3.90535 1.00605C4.31683 1.03453 4.71257 1.17557 5.04931 1.41376C5.38606 1.65195 5.65085 1.97812 5.81474 2.35663C5.97864 2.73513 6.03534 3.15141 5.97864 3.55996C5.92194 3.96852 5.75403 4.35362 5.49325 4.6732C5.23248 4.99277 4.88888 5.23451 4.5 5.372V10.628C5.00069 10.8049 5.4227 11.1532 5.69145 11.6112C5.9602 12.0692 6.05837 12.6075 5.96861 13.1309C5.87885 13.6542 5.60695 14.1291 5.20095 14.4713C4.79496 14.8136 4.28103 15.0014 3.75 15.0014C3.21897 15.0014 2.70503 14.8136 2.29904 14.4713C1.89305 14.1291 1.62114 13.6542 1.53139 13.1309C1.44163 12.6075 1.5398 12.0692 1.80855 11.6112C2.07729 11.1532 2.49931 10.8049 3 10.628V5.372C2.56121 5.21686 2.18133 4.92948 1.91268 4.54944C1.64404 4.1694 1.49986 3.7154 1.5 3.25ZM7.177 3.073L9.573 0.676999C9.60796 0.641946 9.65255 0.618064 9.7011 0.60838C9.74966 0.598697 9.79999 0.603648 9.84573 0.622607C9.89147 0.641566 9.93054 0.673678 9.95801 0.714873C9.98547 0.756067 10.0001 0.804489 10 0.853999V2.5H11C11.663 2.5 12.2989 2.76339 12.7678 3.23223C13.2366 3.70107 13.5 4.33696 13.5 5V10.628C14.0007 10.8049 14.4227 11.1532 14.6914 11.6112C14.9602 12.0692 15.0584 12.6075 14.9686 13.1309C14.8789 13.6542 14.6069 14.1291 14.201 14.4713C13.795 14.8136 13.281 15.0014 12.75 15.0014C12.219 15.0014 11.705 14.8136 11.299 14.4713C10.893 14.1291 10.6211 13.6542 10.5314 13.1309C10.4416 12.6075 10.5398 12.0692 10.8085 11.6112C11.0773 11.1532 11.4993 10.8049 12 10.628V5C12 4.73478 11.8946 4.48043 11.7071 4.29289C11.5196 4.10536 11.2652 4 11 4H10V5.646C10.0001 5.69551 9.98547 5.74393 9.95801 5.78513C9.93054 5.82632 9.89147 5.85843 9.84573 5.87739C9.79999 5.89635 9.74966 5.9013 9.7011 5.89162C9.65255 5.88193 9.60796 5.85805 9.573 5.823L7.177 3.427C7.15372 3.40378 7.13524 3.37619 7.12264 3.34582C7.11004 3.31544 7.10355 3.28288 7.10355 3.25C7.10355 3.21712 7.11004 3.18456 7.12264 3.15418C7.13524 3.12381 7.15372 3.09622 7.177 3.073ZM3.75 2.5C3.55109 2.5 3.36032 2.57902 3.21967 2.71967C3.07902 2.86032 3 3.05109 3 3.25C3 3.44891 3.07902 3.63968 3.21967 3.78033C3.36032 3.92098 3.55109 4 3.75 4C3.94891 4 4.13968 3.92098 4.28033 3.78033C4.42098 3.63968 4.5 3.44891 4.5 3.25C4.5 3.05109 4.42098 2.86032 4.28033 2.71967C4.13968 2.57902 3.94891 2.5 3.75 2.5ZM3.75 12C3.55109 12 3.36032 12.079 3.21967 12.2197C3.07902 12.3603 3 12.5511 3 12.75C3 12.9489 3.07902 13.1397 3.21967 13.2803C3.36032 13.421 3.55109 13.5 3.75 13.5C3.94891 13.5 4.13968 13.421 4.28033 13.2803C4.42098 13.1397 4.5 12.9489 4.5 12.75C4.5 12.5511 4.42098 12.3603 4.28033 12.2197C4.13968 12.079 3.94891 12 3.75 12ZM12 12.75C12 12.9489 12.079 13.1397 12.2197 13.2803C12.3603 13.421 12.5511 13.5 12.75 13.5C12.9489 13.5 13.1397 13.421 13.2803 13.2803C13.421 13.1397 13.5 12.9489 13.5 12.75C13.5 12.5511 13.421 12.3603 13.2803 12.2197C13.1397 12.079 12.9489 12 12.75 12C12.5511 12 12.3603 12.079 12.2197 12.2197C12.079 12.3603 12 12.5511 12 12.75Z" fill="#8C8C8C"/>
</svg>
