<?xml version="1.0" encoding="utf-8"?><!-- Uploaded to: SVG Repo, www.svgrepo.com, Generator: SVG Repo Mixer Tools -->
<svg fill="currentColor" width="800px" height="800px" viewBox="0 0 1024 1024" xmlns="http://www.w3.org/2000/svg"><path d="M442.458 506.633l526.285 319.386c9.669 5.868 22.265 2.786 28.133-6.883s2.786-22.265-6.883-28.133L463.708 471.617c-9.669-5.868-22.265-2.786-28.133 6.883s-2.786 22.265 6.883 28.133z"/><path d="M471.605 496.4c69.645-88.617 219.439-102.62 347.816-28.496 132.967 76.763 194.927 220.077 144.852 325.443-4.855 10.216-.509 22.433 9.706 27.288s22.433.509 27.288-9.706c60.149-126.562-11.322-291.875-161.366-378.497-144.745-83.575-317.1-67.463-400.501 38.659-6.989 8.893-5.446 21.768 3.447 28.757s21.768 5.446 28.757-3.447z"/><path d="M684.302 659.986L486.25 992.53c-5.788 9.718-2.602 22.288 7.116 28.075s22.288 2.602 28.075-7.116l198.052-332.544c5.788-9.718 2.602-22.288-7.116-28.075s-22.288-2.602-28.075 7.116zm159.905-278.013l-27.699 47.974c-5.656 9.795-2.3 22.321 7.496 27.976s22.321 2.3 27.976-7.496l27.699-47.974c5.656-9.795 2.3-22.321-7.496-27.976s-22.321-2.3-27.976 7.496zm-518.698-143.64c0-46.166-37.423-83.589-83.589-83.589s-83.589 37.423-83.589 83.589 37.423 83.589 83.589 83.589 83.589-37.423 83.589-83.589zm40.96 0c0 68.788-55.761 124.549-124.549 124.549s-124.549-55.761-124.549-124.549c0-68.788 55.761-124.549 124.549-124.549s124.549 55.761 124.549 124.549zM221.44 20.48h40.96V51.2h-40.96V20.48zM262.4 51.2c0 27.307-40.96 27.307-40.96 0V20.48c0-27.307 40.96-27.307 40.96 0V51.2zm-40.96 381.44h40.96v30.72h-40.96v-30.72zm40.96 30.72c0 27.307-40.96 27.307-40.96 0v-30.72c0-27.307 40.96-27.307 40.96 0v30.72zM70.853 99.817l28.963-28.963 21.729 21.729-28.963 28.963-21.729-21.729zm50.693-7.234c19.309 19.309-9.654 48.272-28.963 28.963L70.854 99.817c-19.309-19.309 9.654-48.272 28.963-28.963l21.729 21.729zm240.748 298.674l28.963-28.963 21.729 21.729-28.963 28.963-21.729-21.729zm50.693-7.234c19.309 19.309-9.654 48.272-28.963 28.963l-21.729-21.729c-19.309-19.309 9.654-48.272 28.963-28.963l21.729 21.729zM20.48 262.4v-40.96H51.2v40.96H20.48zm30.72-40.96c27.307 0 27.307 40.96 0 40.96H20.48c-27.307 0-27.307-40.96 0-40.96H51.2zm412.16 0c27.307 0 27.307 40.96 0 40.96h-30.72c-27.307 0-27.307-40.96 0-40.96h30.72zM92.583 362.294c19.309-19.309 48.272 9.654 28.963 28.963l-21.729 21.729c-19.309 19.309-48.272-9.654-28.963-28.963l21.729-21.729zm291.44-291.441c19.309-19.309 48.272 9.654 28.963 28.963l-21.729 21.729c-19.309 19.309-48.272-9.654-28.963-28.963l21.729-21.729z"/></svg>
